<?xml version="1.0" encoding="UTF-8" ?>
<svg version="1.1" width="50" height="7" xmlns="http://www.w3.org/2000/svg" shape-rendering="crispEdges">
<rect x="46" y="0" width="1" height="1" fill="#000000" />
<rect x="47" y="1" width="1" height="1" fill="#000000" />
<rect x="48" y="2" width="1" height="1" fill="#000000" />
<rect x="0" y="3" width="1" height="1" fill="#000000" />
<rect x="1" y="3" width="1" height="1" fill="#000000" />
<rect x="2" y="3" width="1" height="1" fill="#000000" />
<rect x="3" y="3" width="1" height="1" fill="#000000" />
<rect x="4" y="3" width="1" height="1" fill="#000000" />
<rect x="5" y="3" width="1" height="1" fill="#000000" />
<rect x="6" y="3" width="1" height="1" fill="#000000" />
<rect x="7" y="3" width="1" height="1" fill="#000000" />
<rect x="8" y="3" width="1" height="1" fill="#000000" />
<rect x="9" y="3" width="1" height="1" fill="#000000" />
<rect x="10" y="3" width="1" height="1" fill="#000000" />
<rect x="11" y="3" width="1" height="1" fill="#000000" />
<rect x="12" y="3" width="1" height="1" fill="#000000" />
<rect x="13" y="3" width="1" height="1" fill="#000000" />
<rect x="14" y="3" width="1" height="1" fill="#000000" />
<rect x="15" y="3" width="1" height="1" fill="#000000" />
<rect x="16" y="3" width="1" height="1" fill="#000000" />
<rect x="17" y="3" width="1" height="1" fill="#000000" />
<rect x="18" y="3" width="1" height="1" fill="#000000" />
<rect x="19" y="3" width="1" height="1" fill="#000000" />
<rect x="20" y="3" width="1" height="1" fill="#000000" />
<rect x="21" y="3" width="1" height="1" fill="#000000" />
<rect x="22" y="3" width="1" height="1" fill="#000000" />
<rect x="23" y="3" width="1" height="1" fill="#000000" />
<rect x="24" y="3" width="1" height="1" fill="#000000" />
<rect x="25" y="3" width="1" height="1" fill="#000000" />
<rect x="26" y="3" width="1" height="1" fill="#000000" />
<rect x="27" y="3" width="1" height="1" fill="#000000" />
<rect x="28" y="3" width="1" height="1" fill="#000000" />
<rect x="29" y="3" width="1" height="1" fill="#000000" />
<rect x="30" y="3" width="1" height="1" fill="#000000" />
<rect x="31" y="3" width="1" height="1" fill="#000000" />
<rect x="32" y="3" width="1" height="1" fill="#000000" />
<rect x="33" y="3" width="1" height="1" fill="#000000" />
<rect x="34" y="3" width="1" height="1" fill="#000000" />
<rect x="35" y="3" width="1" height="1" fill="#000000" />
<rect x="36" y="3" width="1" height="1" fill="#000000" />
<rect x="37" y="3" width="1" height="1" fill="#000000" />
<rect x="38" y="3" width="1" height="1" fill="#000000" />
<rect x="39" y="3" width="1" height="1" fill="#000000" />
<rect x="40" y="3" width="1" height="1" fill="#000000" />
<rect x="41" y="3" width="1" height="1" fill="#000000" />
<rect x="42" y="3" width="1" height="1" fill="#000000" />
<rect x="43" y="3" width="1" height="1" fill="#000000" />
<rect x="44" y="3" width="1" height="1" fill="#000000" />
<rect x="45" y="3" width="1" height="1" fill="#000000" />
<rect x="46" y="3" width="1" height="1" fill="#000000" />
<rect x="47" y="3" width="1" height="1" fill="#000000" />
<rect x="48" y="3" width="1" height="1" fill="#000000" />
<rect x="49" y="3" width="1" height="1" fill="#000000" />
<rect x="48" y="4" width="1" height="1" fill="#000000" />
<rect x="47" y="5" width="1" height="1" fill="#000000" />
<rect x="46" y="6" width="1" height="1" fill="#000000" />
</svg>